<svg width="32" height="28" viewBox="0 0 32 28" fill="none" xmlns="http://www.w3.org/2000/svg">
<mask id="path-1-inside-1_2_664" fill="white">
<path d="M29.5198 1.13558C26.8356 -0.791829 23.0802 -0.20472 21.1291 2.45015L15.9997 9.43466L10.8702 2.45015C8.91916 -0.20472 5.15897 -0.794169 2.47718 1.13558C-0.206978 3.06299 -0.802932 6.7798 1.14811 9.43466L14.025 26.9685C15.0371 28.3438 16.9622 28.3438 17.9744 26.9685L30.8512 9.43466C32.8023 6.7798 32.2087 3.06299 29.5221 1.13558M27.1478 7.00435L15.9997 22.1827L4.85154 7.00435C4.32417 6.28625 4.48498 5.28044 5.211 4.75882C5.93703 4.23721 6.95393 4.39627 7.4813 5.11437L15.9997 16.7092L24.5157 5.11437C25.043 4.39627 26.0599 4.23487 26.786 4.75882C27.512 5.28044 27.6728 6.28625 27.1454 7.00435"/>
</mask>
<path d="M29.5198 1.13558C26.8356 -0.791829 23.0802 -0.20472 21.1291 2.45015L15.9997 9.43466L10.8702 2.45015C8.91916 -0.20472 5.15897 -0.794169 2.47718 1.13558C-0.206978 3.06299 -0.802932 6.7798 1.14811 9.43466L14.025 26.9685C15.0371 28.3438 16.9622 28.3438 17.9744 26.9685L30.8512 9.43466C32.8023 6.7798 32.2087 3.06299 29.5221 1.13558M27.1478 7.00435L15.9997 22.1827L4.85154 7.00435C4.32417 6.28625 4.48498 5.28044 5.211 4.75882C5.93703 4.23721 6.95393 4.39627 7.4813 5.11437L15.9997 16.7092L24.5157 5.11437C25.043 4.39627 26.0599 4.23487 26.786 4.75882C27.512 5.28044 27.6728 6.28625 27.1454 7.00435" fill="#FDFDFD"/>
<path d="M21.1291 2.45015L20.1622 1.73953L20.1619 1.73984L21.1291 2.45015ZM15.9997 9.43466L15.0325 10.145L15.9997 11.4619L16.9669 10.145L15.9997 9.43466ZM10.8702 2.45015L11.8374 1.73984L11.8372 1.73953L10.8702 2.45015ZM2.47718 1.13558L3.17711 2.11031L3.17807 2.10962L2.47718 1.13558ZM1.14811 9.43466L2.1153 8.72435L2.11507 8.72404L1.14811 9.43466ZM14.025 26.9685L13.0578 27.6788L13.0585 27.6797L14.025 26.9685ZM17.9744 26.9685L18.9408 27.6797L18.9415 27.6788L17.9744 26.9685ZM30.8512 9.43466L29.8843 8.72404L29.884 8.72435L30.8512 9.43466ZM15.9997 22.1827L15.0325 22.893L15.9997 24.2098L16.9668 22.893L15.9997 22.1827ZM4.85154 7.00435L3.88434 7.71466L3.88438 7.7147L4.85154 7.00435ZM7.4813 5.11437L6.51411 5.82467L6.51423 5.82484L7.4813 5.11437ZM15.9997 16.7092L15.0326 17.4197L15.9998 18.7362L16.9668 17.4196L15.9997 16.7092ZM24.5157 5.11437L25.4828 5.82471L25.4828 5.82467L24.5157 5.11437ZM26.786 4.75882L26.0837 5.73189L26.0858 5.73338L26.786 4.75882ZM29.5198 1.13558L30.2197 0.160845C27.0048 -2.1477 22.5051 -1.44855 20.1622 1.73953L21.1291 2.45015L22.0961 3.16076C23.6553 1.03911 26.6665 0.564042 28.8199 2.11031L29.5198 1.13558ZM21.1291 2.45015L20.1619 1.73984L15.0325 8.72435L15.9997 9.43466L16.9669 10.145L22.0963 3.16045L21.1291 2.45015ZM15.9997 9.43466L16.9669 8.72435L11.8374 1.73984L10.8702 2.45015L9.90301 3.16046L15.0325 10.145L15.9997 9.43466ZM10.8702 2.45015L11.8372 1.73953C9.49479 -1.44785 4.98995 -2.15093 1.77629 0.161541L2.47718 1.13558L3.17807 2.10962C5.328 0.562588 8.34353 1.03841 9.90323 3.16076L10.8702 2.45015ZM2.47718 1.13558L1.77726 0.160845C-1.44626 2.47555 -2.16773 6.94907 0.181142 10.1453L1.14811 9.43466L2.11507 8.72404C0.561865 6.61053 1.0323 3.65043 3.17711 2.11031L2.47718 1.13558ZM1.14811 9.43466L0.180916 10.145L13.0578 27.6788L14.025 26.9685L14.9922 26.2582L2.1153 8.72435L1.14811 9.43466ZM14.025 26.9685L13.0585 27.6797C14.5502 29.7068 17.4491 29.7068 18.9408 27.6797L17.9744 26.9685L17.0079 26.2572C16.4752 26.9809 15.5241 26.9809 14.9915 26.2572L14.025 26.9685ZM17.9744 26.9685L18.9415 27.6788L31.8184 10.145L30.8512 9.43466L29.884 8.72435L17.0072 26.2582L17.9744 26.9685ZM30.8512 9.43466L31.8182 10.1453C34.1666 6.94964 33.4486 2.47568 30.2217 0.160554L29.5221 1.13558L28.8226 2.1106C30.9687 3.6503 31.4379 6.60995 29.8843 8.72404L30.8512 9.43466ZM27.1478 7.00435L26.1806 6.29399L15.0325 21.4723L15.9997 22.1827L16.9668 22.893L28.1149 7.7147L27.1478 7.00435ZM15.9997 22.1827L16.9668 21.4723L5.8187 6.29399L4.85154 7.00435L3.88438 7.7147L15.0325 22.893L15.9997 22.1827ZM4.85154 7.00435L5.81873 6.29404C5.68857 6.1168 5.72459 5.86743 5.91118 5.73338L5.211 4.75882L4.51083 3.78427C3.24537 4.69345 2.95976 6.4557 3.88434 7.71466L4.85154 7.00435ZM5.211 4.75882L5.91118 5.73338C6.10639 5.59312 6.37865 5.64022 6.51411 5.82467L7.4813 5.11437L8.4485 4.40406C7.52921 3.15231 5.76766 2.88129 4.51083 3.78427L5.211 4.75882ZM7.4813 5.11437L6.51423 5.82484L15.0326 17.4197L15.9997 16.7092L16.9667 15.9987L8.44837 4.40389L7.4813 5.11437ZM15.9997 16.7092L16.9668 17.4196L25.4828 5.82471L24.5157 5.11437L23.5485 4.40402L15.0325 15.9989L15.9997 16.7092ZM24.5157 5.11437L25.4828 5.82467C25.6201 5.63784 25.8917 5.59332 26.0837 5.73189L26.786 4.75882L27.4882 3.78576C26.2282 2.87642 24.466 3.15469 23.5485 4.40406L24.5157 5.11437ZM26.786 4.75882L26.0858 5.73338C26.2724 5.86743 26.3084 6.1168 26.1782 6.29404L27.1454 7.00435L28.1126 7.71466C29.0372 6.45569 28.7516 4.69345 27.4861 3.78427L26.786 4.75882Z" fill="#74BD43" mask="url(#path-1-inside-1_2_664)"/>
</svg>
