<svg width="257" height="85" viewBox="0 0 257 85" fill="none" xmlns="http://www.w3.org/2000/svg">
<path d="M179.9 55.8727C176.422 55.8727 172.944 55.1607 169.723 53.8014C163.475 51.1476 158.451 46.0989 155.81 39.8203C153.556 34.3832 153.105 28.2989 154.651 22.6029C155.231 20.4021 156.132 18.2661 157.292 16.3243C158.451 14.3825 159.804 12.6349 161.414 11.0167C163.024 9.39849 164.763 8.03921 166.696 6.87412C172.364 3.57303 178.998 2.47266 185.439 3.89666C187.178 4.28503 188.917 4.86757 190.528 5.57957C192.138 6.29157 193.684 7.19776 195.101 8.23339C196.518 9.26903 197.806 10.4341 199.03 11.7287L199.867 12.6349L197.742 14.7709C197.162 15.4181 196.454 15.8712 195.681 16.2596C194.843 16.6479 193.942 16.7774 193.04 16.7774C191.752 16.7774 190.528 16.389 189.497 15.677C188.08 14.7061 186.599 13.9941 184.988 13.4116C181.124 12.1818 177.001 12.3759 173.266 13.9294C171.269 14.7709 169.465 16.0654 167.855 17.5541C166.309 19.1076 165.085 20.9199 164.248 22.9912C163.411 25.0625 162.96 27.3279 162.96 29.5934C162.96 31.8589 163.411 34.1243 164.312 36.1956C165.214 38.2669 166.438 40.144 168.048 41.6974C169.659 43.2509 171.591 44.4807 173.652 45.3869C175.713 46.2283 177.968 46.6814 180.158 46.6167C183.7 46.552 187.114 45.3869 189.948 43.2509V37.2312H188.467C187.565 37.2312 186.663 37.037 185.826 36.7134C185.053 36.3898 184.344 35.872 183.765 35.2894C183.185 34.7069 182.734 33.9949 182.476 33.2181C182.154 32.4414 182.026 31.6 182.026 30.7585V27.9752H199.159V47.3287C196.711 50.0472 193.748 52.1832 190.399 53.672C187.178 55.096 183.571 55.8727 179.9 55.8727Z" fill="#74BD43"/>
<path d="M230.72 55.8727C227.242 55.8727 223.764 55.1607 220.543 53.8014C214.295 51.1476 209.271 46.0989 206.63 39.8203C205.278 36.584 204.569 33.0887 204.569 29.5934C204.569 23.8327 206.437 18.2014 209.915 13.6705C213.394 9.07487 218.289 5.77378 223.764 4.22032C228.337 2.9905 233.103 2.9905 237.677 4.22032C239.867 4.80287 241.992 5.70905 243.924 6.87414C245.857 8.03923 247.596 9.39851 249.206 11.0167C250.816 12.6349 252.169 14.3825 253.328 16.3243C255.712 20.3374 256.935 24.9331 256.935 29.5934C256.935 34.2538 255.712 38.8494 253.328 42.8625C251.074 46.7462 247.789 50.0473 243.924 52.3127C239.867 54.6429 235.293 55.9374 230.72 55.8727ZM230.656 12.5701C228.401 12.5701 226.211 12.9585 224.086 13.8647C220.028 15.6123 216.807 18.8487 215.068 22.9265C214.167 24.9978 213.716 27.2632 213.716 29.5287C213.716 31.7942 214.167 34.0596 215.068 36.1309C216.357 39.2378 218.547 41.8269 221.316 43.704C224.086 45.5811 227.371 46.552 230.656 46.552C233.941 46.552 237.226 45.5811 239.995 43.704C242.765 41.8269 244.955 39.2378 246.243 36.1309C247.145 34.0596 247.596 31.7942 247.596 29.5287C247.596 27.2632 247.145 24.9978 246.243 22.9265C244.504 18.8487 241.284 15.6123 237.226 13.8647C235.229 13.0232 232.975 12.5054 230.656 12.5701Z" fill="#74BD43"/>
<path d="M19.9674 55.8727H0V3.2494H19.9674C22.3506 3.2494 24.6694 3.57303 26.9238 4.15558C29.1138 4.73813 31.2394 5.64431 33.1717 6.8094C35.104 7.97449 36.8431 9.33376 38.4534 10.9519C40.0637 12.5701 41.4163 14.3178 42.5757 16.2596C44.9589 20.2727 46.1827 24.8683 46.1827 29.5287C46.1827 34.189 44.9589 38.8494 42.5757 42.8625C41.4163 44.8043 40.0637 46.6167 38.4534 48.1702C36.8431 49.7883 35.104 51.1476 33.1717 52.3127C31.1749 53.4778 29.1138 54.3192 26.9238 54.9665C24.6694 55.6138 22.2862 55.9374 19.9674 55.8727ZM9.27519 46.552H19.903C22.1574 46.552 24.4118 46.0989 26.4729 45.1927C28.4697 44.3512 30.3376 43.1214 31.8835 41.568C33.4293 40.0145 34.6531 38.1374 35.5549 36.1309C36.4566 34.0596 36.9075 31.7941 36.9075 29.5287C36.9075 27.2632 36.4566 24.9978 35.5549 22.9265C33.8158 18.8487 30.5952 15.6123 26.5373 13.8647C24.4762 12.9585 22.2218 12.5054 19.9674 12.5054H9.27519V46.552Z" fill="#74BD43"/>
<path d="M157.034 55.8727H151.108C149.82 55.8727 148.532 55.5491 147.437 54.8371C146.342 54.1251 145.504 53.0894 144.989 51.9243L141.833 44.7396H118.065L114.909 51.9243C114.394 53.0894 113.557 54.1251 112.462 54.8371C111.367 55.5491 110.078 55.9374 108.79 55.9374H102.864L125.859 3.31414H134.233L157.034 55.8727ZM122.317 35.2247H137.84L130.11 16.7127L122.317 35.2247Z" fill="#74BD43"/>
<path d="M109.692 2.73158C106.987 0.789763 103.637 -0.0516918 100.352 0.466127C97.0675 0.983945 94.1045 2.79631 92.1722 5.51486L81.48 20.3374L70.7878 5.51486C69.8216 4.09086 68.6622 2.92576 67.2451 2.01958C65.8281 1.1134 64.2822 0.466127 62.6075 0.207217C60.9329 -0.116419 59.2582 -0.0516919 57.5835 0.336672C55.9732 0.725036 54.3629 1.43704 53.0103 2.40795C51.6577 3.37886 50.4983 4.6734 49.6609 6.0974C48.8236 7.5214 48.2439 9.13959 47.9862 10.8225C47.7286 12.5054 47.8574 14.1883 48.3083 15.8712C48.7592 17.4894 49.5321 19.0429 50.5627 20.3374L77.4221 57.4909C77.873 58.1382 78.5171 58.7207 79.2256 59.1091C79.9341 59.4974 80.7715 59.6916 81.5444 59.6916C82.3817 59.6916 83.1547 59.4974 83.8632 59.1091C84.5717 58.7207 85.2158 58.2029 85.6667 57.4909L112.526 20.3374C114.458 17.6189 115.296 14.253 114.78 10.952C114.201 7.65086 112.397 4.73813 109.692 2.73158ZM104.732 15.224L81.48 47.3934L58.2276 15.224C57.97 14.8356 57.7123 14.4472 57.6479 13.9941C57.5191 13.541 57.5191 13.088 57.5835 12.6349C57.6479 12.1818 57.7767 11.7287 58.0344 11.3403C58.292 10.952 58.5497 10.6283 58.9361 10.3694C59.3226 10.1105 59.7091 9.91631 60.1599 9.78686C60.6108 9.6574 61.0617 9.6574 61.5126 9.72213C61.9634 9.78686 62.4143 9.98104 62.8008 10.24C63.1873 10.4989 63.5093 10.8225 63.767 11.2109L81.5444 35.8072L99.3218 11.2109C99.5795 10.8225 99.9015 10.4989 100.288 10.24C100.674 9.98104 101.125 9.85159 101.576 9.72213C102.027 9.6574 102.478 9.6574 102.929 9.78686C103.38 9.91631 103.766 10.1105 104.153 10.3694C104.539 10.6283 104.861 10.952 105.054 11.3403C105.312 11.7287 105.441 12.1818 105.505 12.6349C105.57 13.088 105.57 13.541 105.441 13.9941C105.248 14.4472 105.054 14.9003 104.732 15.224Z" fill="#74BD43"/>
<path d="M230.72 55.8727C227.242 55.8727 223.764 55.1607 220.543 53.8014C214.295 51.1476 209.271 46.0989 206.63 39.8203C205.278 36.584 204.569 33.0887 204.569 29.5934C204.569 23.8327 206.437 18.2014 209.915 13.6705C213.394 9.07487 218.289 5.77378 223.764 4.22032C228.337 2.9905 233.103 2.9905 237.677 4.22032C239.867 4.80287 241.992 5.70905 243.924 6.87414C245.857 8.03923 247.596 9.39851 249.206 11.0167C250.816 12.6349 252.169 14.3825 253.328 16.3243C255.712 20.3374 256.935 24.9331 256.935 29.5934C256.935 34.2538 255.712 38.8494 253.328 42.8625C251.074 46.7462 247.789 50.0473 243.924 52.3127C239.867 54.6429 235.293 55.9374 230.72 55.8727ZM230.656 12.5701C228.401 12.5701 226.211 12.9585 224.086 13.8647C220.028 15.6123 216.807 18.8487 215.068 22.9265C214.167 24.9978 213.716 27.2632 213.716 29.5287C213.716 31.7942 214.167 34.0596 215.068 36.1309C216.357 39.2378 218.547 41.8269 221.316 43.704C224.086 45.5811 227.371 46.552 230.656 46.552C233.941 46.552 237.226 45.5811 239.995 43.704C242.765 41.8269 244.955 39.2378 246.243 36.1309C247.145 34.0596 247.596 31.7942 247.596 29.5287C247.596 27.2632 247.145 24.9978 246.243 22.9265C244.504 18.8487 241.284 15.6123 237.226 13.8647C235.229 13.0232 232.975 12.5054 230.656 12.5701Z" fill="#74BD43"/>
<path d="M0.0644531 66.7469C1.35267 66.5527 2.64089 66.4233 3.92912 66.4233C5.41057 66.2938 6.82761 66.6822 8.05142 67.5883C8.5023 67.9767 8.82435 68.4298 9.082 68.9476C9.33964 69.4654 9.46846 70.048 9.40405 70.6305C9.40405 71.2131 9.33964 71.7956 9.14641 72.3134C8.95318 72.8313 8.63112 73.3491 8.24465 73.7374C7.02084 74.7731 5.47498 75.3556 3.8647 75.2262C3.47824 75.2262 3.02736 75.2262 2.64089 75.1614V80.4043H0.0644531V66.7469ZM2.57648 73.2196C2.96295 73.2843 3.41383 73.3491 3.80029 73.3491C5.66821 73.3491 6.82761 72.4429 6.82761 70.76C6.82761 69.0771 5.73262 68.4298 3.99353 68.4298C3.47824 68.4298 3.02736 68.4298 2.51207 68.5592V73.2196H2.57648Z" fill="#74BD43"/>
<path d="M11.4007 65.776H13.9771V71.7956H14.0415C14.3636 71.2778 14.8145 70.8895 15.3298 70.6305C15.8451 70.3716 16.4248 70.2422 17.0045 70.2422C18.7436 70.2422 20.4826 71.4073 20.4826 74.6436V80.5985H17.9706V74.9025C17.9706 73.4138 17.4553 72.3135 16.0383 72.3135C15.5874 72.3135 15.2009 72.4429 14.8145 72.7018C14.4924 72.9607 14.2348 73.3491 14.106 73.7375C14.0415 73.9964 13.9771 74.2553 13.9771 74.5142V80.5338H11.4007V65.776Z" fill="#74BD43"/>
<path d="M28.8561 80.4691L28.6629 79.3687H28.5985C28.212 79.8218 27.7611 80.1454 27.2458 80.4044C26.7306 80.6633 26.1509 80.728 25.6356 80.728C25.2491 80.728 24.7982 80.6633 24.4762 80.5338C24.0897 80.4044 23.7677 80.1454 23.4456 79.8865C23.1235 79.6276 22.9303 79.2393 22.7371 78.9156C22.6083 78.5273 22.4794 78.1389 22.4794 77.7505C22.4794 75.2262 24.7338 73.9316 28.4052 73.9316V73.7374C28.4052 73.0902 28.1476 71.9898 26.3441 71.9898C25.3779 71.9898 24.4762 72.2487 23.6388 72.7018L23.1235 71.0189C24.2185 70.4363 25.5067 70.1127 26.7306 70.1127C29.9511 70.1127 30.8529 72.184 30.8529 74.3847V78.0094C30.8529 78.7862 30.9173 79.6276 30.9817 80.4044L28.8561 80.4691ZM28.5341 75.5498C26.7306 75.4851 25.0559 75.8734 25.0559 77.4269C25.0559 77.6211 25.0559 77.8153 25.1203 78.0094C25.1847 78.2036 25.3135 78.3331 25.4423 78.5273C25.5712 78.6567 25.7644 78.7862 25.9576 78.8509C26.1509 78.9156 26.3441 78.9156 26.5373 78.9156C26.9882 78.9156 27.3747 78.7862 27.7611 78.5273C28.1476 78.2684 28.4052 77.9447 28.5341 77.4916C28.5985 77.2974 28.5985 77.1033 28.5985 76.9091V75.5498H28.5341Z" fill="#74BD43"/>
<path d="M33.687 73.6727C33.687 72.3135 33.687 71.3426 33.6226 70.4364H35.8125L35.8769 72.3782H35.9414C36.1346 71.7956 36.4566 71.2778 36.9719 70.8895C37.4872 70.5011 38.0669 70.3069 38.711 70.2422C38.9043 70.2422 39.0975 70.2422 39.2907 70.3069V72.6371C39.0331 72.5724 38.7754 72.5724 38.5822 72.5724C38.0025 72.5724 37.4872 72.7666 37.0363 73.0902C36.5855 73.4786 36.3278 73.9964 36.2634 74.5142C36.199 74.7731 36.199 75.032 36.199 75.2909V80.5338H33.687V73.6727Z" fill="#74BD43"/>
<path d="M40.9655 73.4138C40.9655 72.2487 40.9655 71.2778 40.9011 70.4364H43.091L43.2199 71.9251H43.2843C43.6063 71.4073 44.0572 70.9542 44.5725 70.6305C45.0878 70.3069 45.7319 70.1775 46.376 70.1775C46.9557 70.1775 47.5354 70.3069 48.0507 70.6953C48.566 71.0189 48.9524 71.5367 49.1457 72.0545C49.4677 71.5367 49.8542 71.0836 50.3695 70.76C50.9492 70.3716 51.6577 70.1127 52.3662 70.1775C54.0409 70.1775 55.7156 71.3425 55.7156 74.5789V80.5338H53.268V74.9673C53.268 73.2844 52.6883 72.3135 51.4645 72.3135C51.078 72.3135 50.6915 72.4429 50.3695 72.7018C50.0474 72.9607 49.7898 73.2844 49.7254 73.6727C49.661 73.9316 49.5966 74.2553 49.5966 74.5142V80.5338H47.1489V74.7084C47.1489 73.2844 46.5692 72.3135 45.4098 72.3135C44.959 72.3135 44.5725 72.5076 44.2504 72.7665C43.9284 73.0255 43.6707 73.4138 43.6063 73.8022C43.5419 74.0611 43.4775 74.32 43.4775 74.5789V80.5338H41.0299V73.4138H40.9655Z" fill="#74BD43"/>
<path d="M64.0889 80.4691L63.8957 79.3687H63.8313C63.4448 79.8218 62.9939 80.1454 62.4786 80.4044C61.9633 80.6633 61.3836 80.728 60.8684 80.728C60.4819 80.728 60.031 80.6633 59.709 80.5338C59.3225 80.4044 59.0004 80.1454 58.6784 79.8865C58.3563 79.6276 58.1631 79.2393 57.9699 78.9156C57.841 78.5273 57.7122 78.1389 57.7122 77.7505C57.7122 75.2262 59.9666 73.9316 63.638 73.9316V73.7374C63.638 73.0902 63.3804 71.9898 61.5769 71.9898C60.6107 71.9898 59.709 72.2487 58.8716 72.7018L58.3563 71.0189C59.4513 70.4363 60.7395 70.1127 61.9633 70.1127C65.1839 70.1127 66.0857 72.184 66.0857 74.3847V78.0094C66.0857 78.7862 66.1501 79.6276 66.2145 80.4044L64.0889 80.4691ZM63.7669 75.5498C61.9633 75.4851 60.2887 75.8734 60.2887 77.4269C60.2887 77.6211 60.2887 77.8153 60.3531 78.0094C60.4175 78.2036 60.5463 78.3331 60.6751 78.5273C60.8039 78.6567 60.9972 78.7862 61.1904 78.8509C61.3836 78.9156 61.5769 78.9156 61.7701 78.9156C62.0278 78.9156 62.2854 78.9156 62.543 78.7862C62.8007 78.7214 62.9939 78.5273 63.1872 78.3978C63.3804 78.2036 63.5092 78.0094 63.638 77.7505C63.7669 77.4916 63.7669 77.2327 63.7669 76.9738V75.5498Z" fill="#74BD43"/>
<path d="M76.3271 80.2102C75.4254 80.5986 74.4592 80.728 73.493 80.728C70.3369 80.728 68.3401 78.7215 68.3401 75.6146C68.3401 72.5076 70.4013 70.2422 73.9439 70.2422C74.7813 70.2422 75.6186 70.3716 76.3915 70.6953L75.9407 72.5724C75.361 72.3135 74.7168 72.184 74.0083 72.184C73.171 72.2487 72.398 72.5724 71.8183 73.2196C71.2386 73.8022 70.9166 74.6436 70.9166 75.4851C70.9166 76.3266 71.2386 77.1033 71.8183 77.7506C72.398 78.3331 73.171 78.7215 74.0083 78.7862C74.7168 78.7862 75.361 78.6567 76.0051 78.3978L76.3271 80.2102Z" fill="#74BD43"/>
<path d="M80.1273 70.4364L81.9308 75.8087C82.124 76.456 82.3173 77.168 82.5105 77.7505H82.5749C82.7681 77.168 82.897 76.456 83.0902 75.744L84.6361 70.3716H87.3413L84.8293 77.2327C83.4767 80.9869 82.4461 82.6698 81.3511 83.7055C80.6426 84.4175 79.6764 84.8706 78.7103 85L78.1306 82.864C78.6458 82.7346 79.1611 82.4756 79.612 82.152C80.1917 81.7636 80.6426 81.1811 80.9646 80.5985C81.0935 80.4691 81.0935 80.2749 81.0935 80.1455C81.0935 80.016 81.0291 79.8218 80.9646 79.6924L77.2932 70.4364H80.1273Z" fill="#74BD43"/>
<path d="M101.963 80.4691C101.641 80.1455 101.319 79.7571 100.868 79.304C99.7727 80.2102 98.3556 80.728 96.9386 80.6633C93.8469 80.6633 92.3654 78.7214 92.3654 76.7149C92.3654 75.8734 92.6231 75.032 93.1384 74.32C93.5892 73.608 94.2978 73.0254 95.0707 72.7018V72.6371C94.3622 71.8604 93.9757 70.8894 93.9757 69.8538C93.9757 69.336 94.1045 68.8829 94.2977 68.4298C94.491 67.9767 94.813 67.5884 95.1351 67.2C95.4571 66.8116 95.908 66.6174 96.4233 66.4233C96.8742 66.2938 97.3895 66.2291 97.9048 66.2291C99.8371 66.2291 101.319 67.4589 101.319 69.4007C101.319 70.8247 100.481 72.0545 98.4201 73.0254V73.0902C99.3862 74.1905 100.481 75.4851 101.254 76.2618C101.898 75.0967 102.349 73.8669 102.478 72.5724H104.732C104.539 74.5142 103.766 76.3265 102.542 77.8153C103.315 78.6567 104.088 79.4982 104.926 80.4044L101.963 80.4691ZM99.6439 77.9447C98.8065 77.0385 97.4539 75.6145 96.1657 74.0611C95.7792 74.32 95.3927 74.6436 95.1351 75.032C94.8774 75.4204 94.7486 75.9382 94.7486 76.3913C94.7486 76.7149 94.813 77.0385 94.9419 77.3622C95.0707 77.6858 95.2639 77.9447 95.5216 78.2036C95.7792 78.4625 96.0369 78.592 96.3589 78.7215C96.681 78.8509 97.003 78.9156 97.3251 78.8509C97.776 78.8509 98.1624 78.7862 98.6133 78.6567C98.9998 78.4625 99.3862 78.2684 99.6439 77.9447ZM96.2301 69.6596C96.2945 70.5011 96.6165 71.2778 97.2607 71.9251C98.4201 71.1484 99.1286 70.5011 99.1286 69.5302C99.1286 69.336 99.1286 69.1418 99.0642 68.9476C98.9998 68.7534 98.9353 68.5593 98.8065 68.4298C98.6777 68.3004 98.5489 68.1709 98.3556 68.1062C98.1624 68.0414 97.9692 67.9767 97.7759 67.9767C97.5827 67.9767 97.3895 68.0414 97.1962 68.1062C97.003 68.1709 96.8098 68.3004 96.681 68.4945C96.5521 68.624 96.4233 68.8182 96.3589 69.0124C96.2301 69.2713 96.2301 69.4654 96.2301 69.6596Z" fill="#74BD43"/>
<path d="M112.204 80.4691L108.79 66.488H111.496L112.848 72.7665C113.17 74.4494 113.557 76.2618 113.75 77.6211C114.008 76.1324 114.394 74.4494 114.781 72.7018L116.262 66.4233H118.903L120.32 72.8313C120.642 74.5142 120.964 76.0676 121.157 77.5564H121.222C121.479 76.0029 121.801 74.3847 122.188 72.7018L123.605 66.4233H126.181L122.445 80.4044H119.74L118.323 73.8669C118.001 72.3782 117.743 70.9542 117.55 69.4654C117.293 70.9542 117.035 72.3134 116.648 73.8669L115.038 80.4044H112.204V80.4691Z" fill="#74BD43"/>
<path d="M128.822 76.1971C128.886 78.0095 130.304 78.7862 131.914 78.7862C132.88 78.7862 133.782 78.6567 134.683 78.3331L135.07 80.0807C133.975 80.5338 132.751 80.728 131.592 80.728C128.307 80.728 126.439 78.7215 126.439 75.6145C126.439 72.8313 128.114 70.1775 131.334 70.1775C134.555 70.1775 135.65 72.896 135.65 75.0967C135.65 75.4851 135.65 75.8087 135.585 76.1971H128.822ZM133.202 74.3847C133.202 73.4785 132.816 71.9251 131.141 71.9251C129.595 71.9251 128.886 73.3491 128.758 74.3847H133.202Z" fill="#74BD43"/>
<path d="M140.158 65.776H137.582V80.4691H140.158V65.776Z" fill="#74BD43"/>
<path d="M145.505 65.776H142.928V80.4691H145.505V65.776Z" fill="#74BD43"/>
<path d="M148.21 73.4138C148.21 72.2487 148.21 71.2778 148.145 70.4364H150.4L150.529 71.9251H150.593C150.915 71.4073 151.366 70.9542 151.946 70.6305C152.525 70.3069 153.105 70.1775 153.749 70.1775C155.488 70.1775 157.292 71.3425 157.292 74.5142V80.4691H154.78V74.7731C154.78 73.3491 154.264 72.2487 152.847 72.2487C152.396 72.2487 152.01 72.3782 151.624 72.6371C151.301 72.896 150.979 73.2844 150.851 73.6727C150.786 73.9316 150.722 74.1905 150.722 74.4495V80.3396H148.145V73.4138H148.21Z" fill="#74BD43"/>
<path d="M161.801 76.1971C161.865 78.0095 163.282 78.7862 164.892 78.7862C165.858 78.7862 166.76 78.6567 167.662 78.3331L168.048 80.0807C166.953 80.5338 165.73 80.728 164.57 80.728C161.285 80.728 159.417 78.7215 159.417 75.6145C159.417 72.8313 161.092 70.1775 164.313 70.1775C167.533 70.1775 168.628 72.896 168.628 75.0967C168.628 75.4851 168.628 75.8087 168.564 76.1971H161.801ZM166.245 74.3847C166.245 73.4785 165.858 71.9251 164.184 71.9251C162.638 71.9251 161.929 73.3491 161.801 74.3847H166.245Z" fill="#74BD43"/>
<path d="M170.496 78.1389C171.269 78.592 172.171 78.8509 173.073 78.8509C174.168 78.8509 174.683 78.3978 174.683 77.7505C174.683 77.1033 174.296 76.7149 173.008 76.2618C171.076 75.5498 170.238 74.5142 170.238 73.2843C170.238 71.5367 171.72 70.1127 174.039 70.1127C174.94 70.1127 175.842 70.3069 176.68 70.6953L176.164 72.5076C175.52 72.1193 174.812 71.9251 174.039 71.9251C173.137 71.9251 172.622 72.3782 172.622 72.9607C172.622 73.5433 173.073 73.9316 174.361 74.3847C176.164 75.032 177.002 75.9382 177.066 77.4916C177.066 79.304 175.649 80.6633 173.008 80.6633C171.978 80.6633 170.947 80.4691 169.981 79.9513L170.496 78.1389Z" fill="#74BD43"/>
<path d="M179.127 78.1389C179.9 78.592 180.802 78.8509 181.704 78.8509C182.799 78.8509 183.314 78.3978 183.314 77.7505C183.314 77.1033 182.927 76.7149 181.639 76.2618C179.707 75.5498 178.869 74.5142 178.869 73.2843C178.869 71.5367 180.351 70.1127 182.67 70.1127C183.571 70.1127 184.473 70.3069 185.311 70.6953L184.795 72.5076C184.151 72.1193 183.443 71.9251 182.67 71.9251C181.768 71.9251 181.253 72.3782 181.253 72.9607C181.253 73.5433 181.704 73.9316 182.992 74.3847C184.795 75.032 185.633 75.9382 185.697 77.4916C185.697 79.304 184.28 80.6633 181.639 80.6633C180.609 80.6633 179.514 80.4691 178.612 79.9513L179.127 78.1389Z" fill="#74BD43"/>
<path d="M199.932 74.32H194.715V78.3978H200.576V80.4691H192.203V66.488H200.254V68.5593H194.715V72.184H199.932V74.32Z" fill="#74BD43"/>
<path d="M204.376 70.4363L205.536 72.3134C205.858 72.8313 206.18 73.3491 206.437 73.8669H206.502C206.759 73.2843 207.081 72.7665 207.339 72.3134L208.434 70.4363H211.204L207.854 75.2909L211.268 80.5338H208.434L207.21 78.4625C206.888 77.9447 206.566 77.3622 206.309 76.8443H206.244C205.922 77.4269 205.664 77.9447 205.342 78.4625L204.183 80.4691H201.413L204.892 75.3556L201.542 70.4363H204.376Z" fill="#74BD43"/>
<path d="M212.879 73.8022C212.879 72.5076 212.814 71.4073 212.814 70.4364H215.068L215.197 71.9898C215.584 71.4073 216.099 70.9542 216.679 70.6305C217.323 70.3069 217.967 70.1775 218.675 70.1775C220.994 70.1775 222.927 72.184 222.927 75.2909C222.927 78.9156 220.608 80.6633 218.353 80.6633C217.838 80.6633 217.258 80.5986 216.743 80.3396C216.228 80.0807 215.841 79.7571 215.519 79.304H215.455V84.5469H212.943L212.879 73.8022ZM215.391 76.2618C215.391 76.5207 215.391 76.7149 215.455 76.9738C215.584 77.4916 215.841 77.9447 216.228 78.2684C216.614 78.592 217.13 78.7862 217.645 78.7862C219.255 78.7862 220.221 77.4269 220.221 75.4851C220.221 73.7375 219.32 72.2487 217.709 72.2487C217.194 72.2487 216.679 72.4429 216.228 72.7665C215.841 73.0902 215.519 73.608 215.391 74.1258C215.326 74.32 215.262 74.5789 215.262 74.7731L215.391 76.2618Z" fill="#74BD43"/>
<path d="M226.727 76.1971C226.791 78.0095 228.208 78.7862 229.819 78.7862C230.785 78.7862 231.686 78.6567 232.588 78.3331L232.975 80.0807C231.88 80.5338 230.656 80.728 229.497 80.728C226.212 80.728 224.344 78.7215 224.344 75.6145C224.344 72.8313 226.018 70.1775 229.239 70.1775C232.459 70.1775 233.554 72.896 233.554 75.0967C233.554 75.4851 233.554 75.8087 233.49 76.1971H226.727ZM231.107 74.3847C231.107 73.4785 230.72 71.9251 229.046 71.9251C227.5 71.9251 226.791 73.3491 226.662 74.3847H231.107Z" fill="#74BD43"/>
<path d="M235.551 73.6727C235.551 72.3135 235.551 71.3426 235.487 70.4364H237.677L237.741 72.3782H237.805C237.999 71.7956 238.321 71.2778 238.836 70.8895C239.351 70.5011 239.931 70.3069 240.575 70.2422C240.768 70.2422 240.962 70.2422 241.155 70.3069V72.6371C240.897 72.5724 240.64 72.5724 240.382 72.5724C239.802 72.5724 239.287 72.7666 238.9 73.1549C238.514 73.5433 238.192 74.0611 238.128 74.5789C238.063 74.8378 238.063 75.0967 238.063 75.3556V80.5986H235.551V73.6727Z" fill="#74BD43"/>
<path d="M246.243 67.5236V70.4363H248.627V72.3134H246.243V76.7796C246.243 78.0094 246.565 78.6567 247.532 78.6567C247.854 78.6567 248.176 78.592 248.498 78.5273L248.562 80.4691C247.982 80.6633 247.338 80.728 246.759 80.728C246.372 80.728 245.986 80.6633 245.599 80.5338C245.213 80.4043 244.891 80.1454 244.569 79.8865C243.989 79.1098 243.667 78.0742 243.796 77.1033V72.3782H242.379V70.4363H243.796V68.1709L246.243 67.5236Z" fill="#74BD43"/>
<path d="M250.494 78.1389C251.267 78.592 252.169 78.8509 253.071 78.8509C254.166 78.8509 254.617 78.3978 254.617 77.7505C254.617 77.1033 254.23 76.7149 252.942 76.2618C251.01 75.5498 250.172 74.5142 250.172 73.2843C250.172 71.5367 251.654 70.1127 253.973 70.1127C254.874 70.1127 255.776 70.3069 256.614 70.6953L256.098 72.5076C255.454 72.1193 254.746 71.9251 253.973 71.9251C253.071 71.9251 252.556 72.3782 252.556 72.9607C252.556 73.5433 253.007 73.9316 254.295 74.3847C256.098 75.032 256.936 75.9382 257 77.4916C257 79.304 255.583 80.6633 252.942 80.6633C251.912 80.6633 250.881 80.4691 249.915 79.9513L250.494 78.1389Z" fill="#74BD43"/>
</svg>
